<svg version="1.1" xmlns="http://www.w3.org/2000/svg" viewBox="0 0 1634.3331298828125 550.9999084472656" width="1634.3331298828125" height="550.9999084472656">
  <!-- svg-source:excalidraw -->
  
  <defs>
    <style class="style-fonts">
      @font-face {
        font-family: "Virgil";
        src: url("https://excalidraw.com/Virgil.woff2");
      }
      @font-face {
        font-family: "Cascadia";
        src: url("https://excalidraw.com/Cascadia.woff2");
      }
      @font-face {
        font-family: "Assistant";
        src: url("https://excalidraw.com/Assistant-Regular.woff2");
      }
    </style>
    
  </defs>
  <rect x="0" y="0" width="1634.3331298828125" height="550.9999084472656" fill="#ffffff"></rect><g stroke-linecap="round" transform="translate(907.5097045898438 222.99996948242188) rotate(0 125.33331298828125 35.33332824707031)"><path d="M2.21 7.22 C2.21 7.22, 2.21 7.22, 2.21 7.22 M2.21 7.22 C2.21 7.22, 2.21 7.22, 2.21 7.22 M0.51 33.57 C7.61 27.65, 17.3 21.66, 29.37 0.36 M0.51 33.57 C10.7 20.96, 22.86 7.18, 29.37 0.36 M0.77 57.65 C9.15 45.51, 25.32 33.92, 50.63 0.29 M0.77 57.65 C21.12 33.54, 38.21 11.85, 50.63 0.29 M11.54 69.65 C23.15 53, 40.08 36.7, 71.89 0.22 M11.54 69.65 C34.5 41.32, 58.45 16.89, 71.89 0.22 M32.8 69.58 C50.16 48.54, 57.5 34.13, 93.15 0.15 M32.8 69.58 C54.73 46.78, 72.94 26.95, 93.15 0.15 M53.4 70.27 C74.6 47.16, 97.69 22.65, 113.76 0.84 M53.4 70.27 C65.21 55.12, 80.16 37.52, 113.76 0.84 M74.66 70.2 C93.39 43.54, 115.41 21.34, 135.02 0.77 M74.66 70.2 C90.58 51.23, 106.43 35.73, 135.02 0.77 M95.92 70.13 C114.35 46.96, 137.22 18.28, 156.28 0.7 M95.92 70.13 C108.04 57.36, 119.89 42.82, 156.28 0.7 M117.18 70.06 C138.72 49.53, 154.06 25.31, 177.54 0.63 M117.18 70.06 C128.97 57.17, 145.25 39.22, 177.54 0.63 M138.44 69.99 C157.95 50.22, 178.09 30.28, 198.14 1.32 M138.44 69.99 C155.77 51.27, 171.02 33.83, 198.14 1.32 M159.04 70.68 C176.56 44.68, 196.69 18.35, 219.4 1.25 M159.04 70.68 C173.45 55.37, 186.83 39.85, 219.4 1.25 M180.3 70.61 C201.87 41.61, 220.35 18.42, 240.66 1.18 M180.3 70.61 C194.64 51.07, 213.68 33.52, 240.66 1.18 M201.56 70.54 C215.75 52.71, 223.64 43.13, 250.77 13.94 M201.56 70.54 C213.54 60.04, 225.64 45.62, 250.77 13.94 M222.83 70.47 C227.24 65.6, 236.75 51.97, 250.38 38.77 M222.83 70.47 C233.29 57.32, 243.28 46.11, 250.38 38.77" stroke="#ffc9c9" stroke-width="2" fill="none"></path><path d="M17.67 0 C64.17 4.09, 100.59 4.97, 233 0 M233 0 C245.91 0.3, 247.86 4.61, 250.67 17.67 M250.67 17.67 C252.17 26.04, 249.48 33.67, 250.67 53 M250.67 53 C252.41 66.44, 246.38 74.22, 233 70.67 M233 70.67 C181.61 73.17, 128.45 72.91, 17.67 70.67 M17.67 70.67 C6.6 73.47, -1.32 62.03, 0 53 M0 53 C1.77 44.21, 3.36 33.72, 0 17.67 M0 17.67 C-2.82 9.61, 1.91 -2.56, 17.67 0" stroke="#000000" stroke-width="4.5" fill="none" stroke-dasharray="8 12"></path></g><g transform="translate(926.6665649414062 240.16664123535156) rotate(0 106.17645263671875 17.5)"><text x="0" y="24.528" font-family="Virgil, Segoe UI Emoji" font-size="28px" fill="#000000" text-anchor="start" style="white-space: pre;" direction="ltr" dominant-baseline="alphabetic">gcc@12 %gcc@11</text></g><g stroke-linecap="round" transform="translate(554.8430786132812 146.99996948242188) rotate(0 167.99993896484375 35.33332824707031)"><path d="M4.7 4.09 C4.7 4.09, 4.7 4.09, 4.7 4.09 M4.7 4.09 C4.7 4.09, 4.7 4.09, 4.7 4.09 M1.03 32.7 C5.86 27.42, 17.83 12.48, 29.24 0.25 M1.03 32.7 C7.41 23.04, 14.92 17.59, 29.24 0.25 M1.3 56.78 C13.28 39.48, 33.43 21.44, 49.85 0.93 M1.3 56.78 C19.63 38.28, 33.92 19.76, 49.85 0.93 M11.41 69.54 C29.92 45.59, 49.62 19.2, 71.11 0.86 M11.41 69.54 C37.26 41.76, 60.67 15.41, 71.11 0.86 M31.35 70.98 C41.68 51.87, 56.86 41, 92.37 0.79 M31.35 70.98 C43.98 55.65, 57.37 41.73, 92.37 0.79 M52.61 70.91 C67.59 55.15, 81.9 35.98, 113.63 0.72 M52.61 70.91 C72.96 48.13, 92.62 24.16, 113.63 0.72 M73.87 70.84 C95.88 46.45, 122.51 13.63, 134.89 0.66 M73.87 70.84 C92.33 47.8, 109.88 25.31, 134.89 0.66 M95.13 70.77 C115.57 45.78, 140.68 22.58, 156.15 0.59 M95.13 70.77 C111.37 53.85, 127.68 38.51, 156.15 0.59 M116.39 70.71 C136.46 45.63, 158.24 18.1, 177.41 0.52 M116.39 70.71 C130.07 57.8, 142 41.84, 177.41 0.52 M137 71.39 C155.32 50.3, 170.57 25.16, 198.67 0.45 M137 71.39 C160.2 45.18, 182.51 15.14, 198.67 0.45 M158.26 71.32 C180.88 45.9, 197.3 22.24, 219.27 1.13 M158.26 71.32 C172.35 56.62, 182.21 43.55, 219.27 1.13 M179.52 71.25 C197.35 53.11, 207.44 45.75, 240.53 1.06 M179.52 71.25 C201.42 45.19, 222.47 19.15, 240.53 1.06 M200.78 71.18 C214.89 49.41, 234.93 31.09, 261.79 1 M200.78 71.18 C221.27 45.94, 247.32 18.68, 261.79 1 M222.04 71.11 C246.73 47.27, 267.91 19.69, 283.05 0.93 M222.04 71.11 C238.69 54.08, 251.3 35.66, 283.05 0.93 M243.3 71.05 C252.44 58.75, 270.35 42.6, 304.31 0.86 M243.3 71.05 C265.2 42.48, 287.66 18.85, 304.31 0.86 M264.56 70.98 C286.99 51.29, 300.08 26.06, 324.92 1.54 M264.56 70.98 C280.08 53.76, 296.75 34.59, 324.92 1.54 M285.82 70.91 C300.59 52.05, 318.03 30.41, 335.68 13.55 M285.82 70.91 C307.19 48.82, 326.05 27.66, 335.68 13.55 M307.08 70.84 C309.84 64.72, 316.18 55.31, 335.95 37.63 M307.08 70.84 C317.22 59, 327.05 50.33, 335.95 37.63" stroke="#ffc9c9" stroke-width="2" fill="none"></path><path d="M17.67 0 C83.31 -5.17, 150.15 -3.23, 318.33 0 M318.33 0 C332.35 -0.85, 339.62 4.9, 336 17.67 M336 17.67 C338.21 28.54, 340.09 39.64, 336 53 M336 53 C335.21 66.11, 333.11 66.76, 318.33 70.67 M318.33 70.67 C228.47 68.44, 136.59 67.15, 17.67 70.67 M17.67 70.67 C1.91 70.65, 1.21 60.98, 0 53 M0 53 C4.04 37.63, -0.81 25.1, 0 17.67 M0 17.67 C-3.16 2.08, 7.94 1.37, 17.67 0" stroke="#000000" stroke-width="4.5" fill="none" stroke-dasharray="8 12"></path></g><g transform="translate(573.9999389648438 164.16664123535156) rotate(0 149.60464477539062 17.5)"><text x="0" y="24.528" font-family="Virgil, Segoe UI Emoji" font-size="28px" fill="#000000" text-anchor="start" style="white-space: pre;" direction="ltr" dominant-baseline="alphabetic">netlib %gcc@12 ^mpich</text></g><g stroke-linecap="round" transform="translate(178.17633056640625 163.6666259765625) rotate(0 181.66659545898438 35.33332824707031)"><path d="M4.7 4.09 C4.7 4.09, 4.7 4.09, 4.7 4.09 M4.7 4.09 C4.7 4.09, 4.7 4.09, 4.7 4.09 M1.03 32.7 C13.28 19.54, 22.71 10.13, 29.24 0.25 M1.03 32.7 C10.15 22.24, 18.43 8.97, 29.24 0.25 M1.3 56.78 C22.1 38.77, 36.66 18.24, 49.85 0.93 M1.3 56.78 C17.91 35.8, 36.88 14.01, 49.85 0.93 M11.41 69.54 C38.26 43.99, 57.3 18.82, 71.11 0.86 M11.41 69.54 C29.47 48.85, 47.3 26.18, 71.11 0.86 M31.35 70.98 C52.75 53.18, 63.96 37.23, 92.37 0.79 M31.35 70.98 C54.89 44.08, 80.39 16.98, 92.37 0.79 M52.61 70.91 C62.91 50.83, 79.1 38.7, 113.63 0.72 M52.61 70.91 C74.91 43.67, 93.1 18.5, 113.63 0.72 M73.87 70.84 C93.24 50.98, 111.6 27.06, 134.89 0.66 M73.87 70.84 C88.56 53.22, 107.12 34.17, 134.89 0.66 M95.13 70.77 C111.65 59.12, 124 35.87, 156.15 0.59 M95.13 70.77 C109.79 53.68, 123.98 34.7, 156.15 0.59 M116.39 70.71 C135.91 46.77, 163.02 23.02, 177.41 0.52 M116.39 70.71 C130.42 55.46, 142.41 39.47, 177.41 0.52 M137 71.39 C157.57 45.92, 179.32 24.86, 198.67 0.45 M137 71.39 C153.47 52.23, 168.33 34.83, 198.67 0.45 M158.26 71.32 C174.55 51.55, 191.05 38.33, 219.93 0.38 M158.26 71.32 C182.19 44.91, 205.26 18.69, 219.93 0.38 M179.52 71.25 C187.8 56.78, 206.38 44.18, 240.53 1.06 M179.52 71.25 C191.44 56.6, 206.03 41.66, 240.53 1.06 M200.78 71.18 C222.55 49.14, 246.85 18.82, 261.79 1 M200.78 71.18 C219.9 51.02, 237.22 30.26, 261.79 1 M222.04 71.11 C246.37 47.05, 265.3 15.09, 283.05 0.93 M222.04 71.11 C237.58 54.65, 251.45 39.9, 283.05 0.93 M243.3 71.05 C261.78 52.78, 278.72 35.12, 304.31 0.86 M243.3 71.05 C255.15 55, 269.44 39.55, 304.31 0.86 M264.56 70.98 C286.87 43.17, 309.43 20.97, 325.57 0.79 M264.56 70.98 C285.68 48.67, 304.98 22.94, 325.57 0.79 M285.82 70.91 C304.64 51.97, 320.33 31.88, 346.83 0.72 M285.82 70.91 C303.69 52.44, 317.94 35.48, 346.83 0.72 M307.08 70.84 C319.36 51.67, 335.43 35.6, 361.53 8.2 M307.08 70.84 C320.62 55.11, 337.05 34.79, 361.53 8.2 M327.68 71.52 C337.37 62.98, 341.39 55.73, 363.11 30.77 M327.68 71.52 C340.53 55.24, 355.94 39.57, 363.11 30.77 M350.26 69.95 C354.07 62.88, 357.79 64.84, 363.38 54.85 M350.26 69.95 C355.25 65.6, 357.38 59.28, 363.38 54.85" stroke="#ffc9c9" stroke-width="2" fill="none"></path><path d="M17.67 0 C103.47 0.93, 187.58 -1.42, 345.67 0 M345.67 0 C360.26 0.03, 365.05 3.51, 363.33 17.67 M363.33 17.67 C367.54 31.54, 365.34 43.47, 363.33 53 M363.33 53 C361.98 66.02, 358.88 70.64, 345.67 70.67 M345.67 70.67 C256.48 74.65, 167.72 72.98, 17.67 70.67 M17.67 70.67 C5.59 73.32, -0.66 62.36, 0 53 M0 53 C2.16 46.45, 3.12 33.69, 0 17.67 M0 17.67 C-3.91 5.71, 8.28 -3.89, 17.67 0" stroke="#000000" stroke-width="4.5" fill="none" stroke-dasharray="8 12"></path></g><g transform="translate(195.32821655273438 181.4999542236328) rotate(0 164.51470947265625 17.5)"><text x="0" y="24.528" font-family="Virgil, Segoe UI Emoji" font-size="28px" fill="#000000" text-anchor="start" style="white-space: pre;" direction="ltr" dominant-baseline="alphabetic">netlib %gcc@12 ^openmpi</text></g><g stroke-linecap="round" transform="translate(406.9999694824219 309.3333282470703) rotate(0 47.999969482421875 35.33332824707031)"><path d="M2.21 7.22 C2.21 7.22, 2.21 7.22, 2.21 7.22 M2.21 7.22 C2.21 7.22, 2.21 7.22, 2.21 7.22 M1.29 14.37 C2.38 12.89, 3.87 7.64, 9.82 4.56 M1.29 14.37 C2.85 12.68, 4.79 9.48, 9.82 4.56 M1.03 20.77 C7.64 18.86, 11.78 14.97, 18.74 0.39 M1.03 20.77 C6.96 16.74, 10.54 11.09, 18.74 0.39 M1.42 26.41 C9.02 19.46, 19.54 11.91, 23.73 0.75 M1.42 26.41 C7.74 21.26, 11.49 14.18, 23.73 0.75 M1.16 32.81 C8.16 25.74, 16.64 15.55, 29.37 0.36 M1.16 32.81 C10.24 25.05, 14.65 13.56, 29.37 0.36 M1.56 38.45 C12.6 25.5, 20.65 18.57, 34.36 0.72 M1.56 38.45 C10.98 24.56, 22.78 12.02, 34.36 0.72 M1.3 44.85 C16.78 25.28, 30.53 13.74, 39.35 1.08 M1.3 44.85 C11.18 34.66, 21.47 22.12, 39.35 1.08 M1.03 51.25 C10.87 36.18, 21.6 24.73, 44.99 0.68 M1.03 51.25 C15.52 34.34, 29.97 17.17, 44.99 0.68 M0.77 57.65 C21.03 35.03, 35.67 12.86, 49.98 1.04 M0.77 57.65 C21.06 35.02, 40.84 12.87, 49.98 1.04 M2.48 61.78 C23.75 38.06, 39.29 14.72, 55.62 0.65 M2.48 61.78 C21.68 41.17, 37.39 21.88, 55.62 0.65 M4.19 65.91 C22.05 40.81, 49.14 18.12, 60.61 1.01 M4.19 65.91 C20.64 46.01, 39.2 29.13, 60.61 1.01 M7.2 68.54 C31.78 41.79, 46.04 21.03, 66.25 0.61 M7.2 68.54 C25.49 48.04, 42.48 30.57, 66.25 0.61 M11.54 69.65 C28.8 51.91, 47.54 27.46, 71.24 0.97 M11.54 69.65 C36.86 43.94, 60.28 17.22, 71.24 0.97 M15.21 71.52 C35.23 50.66, 48.82 35.34, 76.88 0.58 M15.21 71.52 C27.91 54.09, 43.65 39.29, 76.88 0.58 M19.54 72.64 C41.54 43.8, 64.1 24.81, 80.55 2.45 M19.54 72.64 C36.71 51.66, 53.42 31.55, 80.55 2.45 M25.18 72.24 C42.6 54.7, 58.71 31.31, 84.89 3.56 M25.18 72.24 C38.01 55.73, 54.98 40.22, 84.89 3.56 M30.17 72.6 C52.26 48.95, 73.5 24.97, 89.22 4.68 M30.17 72.6 C51.01 48.61, 71.33 24.6, 89.22 4.68 M35.81 72.21 C50.51 57.52, 67.85 37.2, 93.55 5.79 M35.81 72.21 C59.47 45.38, 82.36 21.53, 93.55 5.79 M40.8 72.57 C57.55 53.64, 76.26 30.25, 94.6 10.68 M40.8 72.57 C51.29 58.73, 64.33 46.46, 94.6 10.68 M46.44 72.17 C55.63 55.91, 67.6 43.11, 96.31 14.82 M46.44 72.17 C58.35 55.83, 71.63 42.33, 96.31 14.82 M51.43 72.53 C66.58 56.29, 87.87 34.86, 98.01 18.95 M51.43 72.53 C63.26 56.09, 77.51 43.44, 98.01 18.95 M57.07 72.14 C67.26 56.76, 78.95 46.58, 97.75 25.35 M57.07 72.14 C72.13 58.25, 85.05 43.24, 97.75 25.35 M62.06 72.5 C76.4 55.21, 84.91 46.17, 97.49 31.75 M62.06 72.5 C74.41 60.19, 82.17 47.11, 97.49 31.75 M67.7 72.1 C77.73 61.75, 85.52 45.88, 97.88 37.39 M67.7 72.1 C79.93 60.09, 90.61 46.69, 97.88 37.39 M72.69 72.47 C82.6 66.28, 93.28 52.48, 97.62 43.79 M72.69 72.47 C80.21 61.83, 88.39 55.49, 97.62 43.79 M78.99 71.32 C83.7 68.65, 84.93 58.4, 97.36 50.18 M78.99 71.32 C84.71 65.39, 85.74 60.77, 97.36 50.18 M86.6 68.66 C90.93 65, 91.81 60.98, 96.44 57.34 M86.6 68.66 C88.42 65.89, 93.44 62.05, 96.44 57.34" stroke="#ffc9c9" stroke-width="0.5" fill="none"></path><path d="M17.67 0 C36.11 -2.62, 53.8 -2.67, 78.33 0 M78.33 0 C87.36 1.09, 97.73 8.08, 96 17.67 M96 17.67 C92.97 30.6, 95.77 42.58, 96 53 M96 53 C99.59 66.26, 92.65 68.49, 78.33 70.67 M78.33 70.67 C59.25 73.62, 42.32 67.66, 17.67 70.67 M17.67 70.67 C5.11 70.65, -1.42 65.32, 0 53 M0 53 C3.41 40.31, 0.99 27.88, 0 17.67 M0 17.67 C-3.14 4.38, 5.82 -0.46, 17.67 0" stroke="#000000" stroke-width="1.5" fill="none" stroke-dasharray="8 9"></path></g><g transform="translate(443.4918975830078 327.1666564941406) rotate(0 11.508041381835938 17.5)"><text x="0" y="24.528" font-family="Virgil, Segoe UI Emoji" font-size="28px" fill="#000000" text-anchor="start" style="white-space: pre;" direction="ltr" dominant-baseline="alphabetic">...</text></g><g stroke-linecap="round" transform="translate(724.9999694824219 321.3333282470703) rotate(0 47.999969482421875 35.33332824707031)"><path d="M2.21 7.22 C2.21 7.22, 2.21 7.22, 2.21 7.22 M2.21 7.22 C2.21 7.22, 2.21 7.22, 2.21 7.22 M0.63 15.13 C7.57 13.12, 7.66 7.7, 12.44 1.54 M0.63 15.13 C4.95 10.78, 6.35 7.58, 12.44 1.54 M0.37 21.52 C8.93 14.32, 14.44 5.62, 18.74 0.39 M0.37 21.52 C5.76 13.84, 11.49 8.07, 18.74 0.39 M0.77 27.17 C8.34 14.25, 20.22 7, 24.39 0 M0.77 27.17 C10.19 18.08, 17.17 4.69, 24.39 0 M0.51 33.57 C10.9 23.97, 19.05 16.58, 29.37 0.36 M0.51 33.57 C9.59 22.61, 18.13 13.92, 29.37 0.36 M0.24 39.96 C5.22 35.26, 11.05 22.72, 35.02 -0.04 M0.24 39.96 C11.36 27.46, 18.33 17.64, 35.02 -0.04 M0.64 45.61 C8.13 30.53, 19.39 19.6, 40 0.32 M0.64 45.61 C11.54 33.72, 25.25 19.95, 40 0.32 M0.38 52 C14.8 37.64, 23.61 23.58, 45.65 -0.07 M0.38 52 C11.98 40.51, 23.13 27.04, 45.65 -0.07 M0.77 57.65 C18.51 41.47, 26.79 24.9, 50.63 0.29 M0.77 57.65 C11.56 44.54, 22.38 32.04, 50.63 0.29 M2.48 61.78 C15.47 47.82, 33.08 29.47, 56.28 -0.11 M2.48 61.78 C15.32 46.26, 31.89 30.37, 56.28 -0.11 M4.19 65.91 C17.63 48.14, 39.01 22.65, 61.26 0.25 M4.19 65.91 C21.99 42.96, 43.45 20.66, 61.26 0.25 M7.86 67.78 C28.09 39.74, 57.62 11.92, 66.91 -0.14 M7.86 67.78 C26.36 42.95, 49.76 19.18, 66.91 -0.14 M12.19 68.9 C26.63 51.28, 44.73 35.18, 71.89 0.22 M12.19 68.9 C33.6 41, 57.99 14.51, 71.89 0.22 M15.87 70.77 C34.4 50.8, 57.89 20.54, 77.54 -0.17 M15.87 70.77 C29.36 55.04, 46.07 37.08, 77.54 -0.17 M20.85 71.13 C32 55.96, 48.44 45.36, 81.87 0.94 M20.85 71.13 C35.45 56.62, 50.53 39.22, 81.87 0.94 M25.84 71.49 C46.24 50.59, 66.59 22.41, 85.54 2.81 M25.84 71.49 C39.18 55, 55.68 39.39, 85.54 2.81 M31.48 71.09 C48.96 55.82, 61.17 38.88, 89.87 3.92 M31.48 71.09 C45.99 50, 63.21 33.51, 89.87 3.92 M36.47 71.45 C54.92 49.34, 71.99 27.86, 92.89 6.55 M36.47 71.45 C52.26 56.77, 66.16 39.9, 92.89 6.55 M42.11 71.06 C56.64 49.24, 78.3 34.59, 93.94 11.44 M42.11 71.06 C62.47 48.75, 83.16 26.22, 93.94 11.44 M47.1 71.42 C58.22 58.79, 75.66 42.34, 95.65 15.57 M47.1 71.42 C61.74 54.91, 75.49 41.72, 95.65 15.57 M52.74 71.02 C64.98 57.23, 79.46 41.76, 96.04 21.21 M52.74 71.02 C67.31 53.36, 85.88 35.84, 96.04 21.21 M57.73 71.38 C73.19 52.46, 84.95 34.88, 96.44 26.86 M57.73 71.38 C70.5 58.41, 82.53 43.86, 96.44 26.86 M63.37 70.99 C68.19 62.11, 79.86 57.1, 96.18 33.25 M63.37 70.99 C72.55 58.08, 86.22 46.71, 96.18 33.25 M68.36 71.35 C71.97 61.05, 81.93 57.87, 95.92 39.65 M68.36 71.35 C74.86 62.6, 83.48 51.6, 95.92 39.65 M74 70.96 C81.04 63.2, 89.72 56.41, 96.31 45.3 M74 70.96 C82.04 60.9, 86.67 55.48, 96.31 45.3 M78.99 71.32 C87.63 69.8, 91.28 59.16, 96.05 51.69 M78.99 71.32 C83.8 64.79, 93.49 57.41, 96.05 51.69 M86.6 68.66 C92.57 62.26, 93.92 59.38, 96.44 57.34 M86.6 68.66 C88.66 65.29, 92.45 62.83, 96.44 57.34" stroke="#ffc9c9" stroke-width="0.5" fill="none"></path><path d="M17.67 0 C37.66 2.72, 65.05 3.25, 78.33 0 M78.33 0 C94.04 1.91, 92.42 2.2, 96 17.67 M96 17.67 C97.54 23.29, 92.56 37.73, 96 53 M96 53 C94.05 60.82, 86.86 69.47, 78.33 70.67 M78.33 70.67 C57.4 72.63, 41.1 72.72, 17.67 70.67 M17.67 70.67 C5.79 74.42, -1.2 65.77, 0 53 M0 53 C3.72 43.61, 2.3 33.16, 0 17.67 M0 17.67 C0.48 3.68, 2.05 -0.32, 17.67 0" stroke="#000000" stroke-width="1.5" fill="none" stroke-dasharray="8 9"></path></g><g transform="translate(761.4918975830078 339.1666564941406) rotate(0 11.508041381835938 17.5)"><text x="0" y="24.528" font-family="Virgil, Segoe UI Emoji" font-size="28px" fill="#000000" text-anchor="start" style="white-space: pre;" direction="ltr" dominant-baseline="alphabetic">...</text></g><g stroke-linecap="round" transform="translate(10 81) rotate(0 612.6666259765625 192)"><path d="M864.56 15.91 C901.4 17.92, 932.83 27.71, 963.48 34.31 C994.14 40.9, 1022.07 47.15, 1048.48 55.48 C1074.88 63.82, 1100.78 74.32, 1121.94 84.3 C1143.09 94.28, 1160.88 104.65, 1175.41 115.36 C1189.94 126.07, 1200.78 137.33, 1209.12 148.57 C1217.46 159.8, 1223.56 170.98, 1225.44 182.78 C1227.33 194.58, 1225.8 207.2, 1220.43 219.37 C1215.05 231.55, 1205.7 244.83, 1193.2 255.85 C1180.7 266.86, 1163.85 275.62, 1145.44 285.44 C1127.03 295.25, 1106.64 305.76, 1082.74 314.72 C1058.85 323.68, 1031.68 331.5, 1002.06 339.2 C972.43 346.91, 938.47 354.79, 905 360.93 C871.52 367.07, 836.43 372.81, 801.21 376.06 C766 379.32, 730.88 378.93, 693.71 380.48 C656.53 382.02, 615.74 385.64, 578.16 385.34 C540.59 385.03, 504.13 381.4, 468.26 378.66 C432.39 375.92, 397.02 373.59, 362.94 368.89 C328.86 364.19, 295.23 357.39, 263.78 350.45 C232.34 343.52, 200.71 335.97, 174.26 327.31 C147.8 318.64, 125.86 308.09, 105.07 298.47 C84.27 288.85, 64.22 280.26, 49.5 269.58 C34.79 258.91, 25.13 246.28, 16.78 234.41 C8.43 222.54, 1.1 210.1, -0.6 198.39 C-2.29 186.68, 1.22 175.37, 6.6 164.14 C11.98 152.91, 19.2 142.27, 31.7 131.01 C44.2 119.74, 62.85 107.03, 81.61 96.54 C100.37 86.05, 120.18 76.8, 144.26 68.07 C168.34 59.35, 196.87 51.82, 226.1 44.19 C255.34 36.56, 287.17 28.31, 319.65 22.3 C352.12 16.29, 385.35 11.31, 420.94 8.15 C456.53 5, 495.97 4.89, 533.17 3.37 C570.38 1.85, 606.7 -1.61, 644.19 -0.99 C681.67 -0.37, 702.58 0.46, 758.07 7.11 C813.56 13.75, 926.1 28.99, 977.12 38.87 C1028.14 48.75, 1070.46 64.24, 1064.18 66.39" stroke="#e03131" stroke-width="4.5" fill="none" stroke-dasharray="8 12"></path></g><g stroke-linecap="round"><g transform="translate(364.6666259765625 239.66665649414062) rotate(0 40.90032276289162 30)"><path d="M0.94 1.16 C15.01 11.25, 68.91 52.95, 82.8 62.58" stroke="#e03131" stroke-width="4.5" fill="none" stroke-dasharray="8 12"></path></g><g transform="translate(364.6666259765625 239.66665649414062) rotate(0 40.90032276289162 30)"><path d="M84.3 61.23 L69.54 61.43 L74.32 50.44 L84.47 64.32" stroke="none" stroke-width="0" fill="#e03131" fill-rule="evenodd"></path><path d="M83.42 63.12 C80.6 63.25, 75.08 60.65, 68.18 58.63 M67.77 58.94 C70.59 56.24, 72.51 53.14, 76 50.06 M74.93 50.44 C76.4 52.71, 79.73 58.35, 84.17 62.45 M82.8 62.58 C82.8 62.58, 82.8 62.58, 82.8 62.58" stroke="#e03131" stroke-width="4.5" fill="none"></path></g></g><mask></mask><g stroke-linecap="round"><g transform="translate(724 224.33331298828125) rotate(0 -106.00003051757812 54.304605891288816)"><path d="M2.21 0.56 C-33.25 18.19, -176.4 89.12, -212.01 107.32" stroke="#e03131" stroke-width="4.5" fill="none" stroke-dasharray="8 12"></path></g><g transform="translate(724 224.33331298828125) rotate(0 -106.00003051757812 54.304605891288816)"><path d="M-213.18 108.62 L-202.07 96.64 L-197.09 105.03 L-210.07 107.18" stroke="none" stroke-width="0" fill="#e03131" fill-rule="evenodd"></path><path d="M-211.71 107.32 C-209.72 103.68, -205.35 98.37, -203.28 94.43 M-202.46 95.96 C-200.52 100.59, -199.34 104.72, -196.24 106.9 M-195.92 107.47 C-203.2 108.47, -205.44 107.93, -211.07 107.69 M-212.01 107.32 C-212.01 107.32, -212.01 107.32, -212.01 107.32" stroke="#e03131" stroke-width="4.5" fill="none"></path></g></g><mask></mask><g stroke-linecap="round"><g transform="translate(900 267.6666564941406) rotate(0 -37.66668701171875 21.666656494140625)"><path d="M1.77 0.51 C-10.13 7.83, -60.49 35.05, -73.25 42.24" stroke="#f08c00" stroke-width="4.5" fill="none" stroke-dasharray="8 12"></path></g><g transform="translate(900 267.6666564941406) rotate(0 -37.66668701171875 21.666656494140625)"><path d="M-73.83 42.86 L-62.46 31.69 L-56.84 42.67 L-73.31 43.09" stroke="none" stroke-width="0" fill="#f08c00" fill-rule="evenodd"></path><path d="M-72.97 43.36 C-71.69 39.67, -68.86 37.17, -65.14 29.29 M-64.18 30.48 C-61.51 34.69, -58.59 38.97, -59 40.02 M-56.82 40.41 C-62.86 40.57, -66.06 42.5, -74.22 43.51 M-73.25 42.24 C-73.25 42.24, -73.25 42.24, -73.25 42.24" stroke="#f08c00" stroke-width="4.5" fill="none"></path></g></g><mask></mask><g transform="translate(966 10) rotate(0 284.86810302734375 45)"><text x="284.86810302734375" y="31.536" font-family="Virgil, Segoe UI Emoji" font-size="36px" fill="#e03131" text-anchor="middle" style="white-space: pre;" direction="ltr" dominant-baseline="alphabetic">Root unification set </text><text x="284.86810302734375" y="76.536" font-family="Virgil, Segoe UI Emoji" font-size="36px" fill="#e03131" text-anchor="middle" style="white-space: pre;" direction="ltr" dominant-baseline="alphabetic">(link+run sub-DAG of the roots)</text></g><g stroke-linecap="round" transform="translate(1127.9999084472656 429.9999542236328) rotate(0 47.999969482421875 35.33332824707031)"><path d="M2.21 7.22 C2.21 7.22, 2.21 7.22, 2.21 7.22 M2.21 7.22 C2.21 7.22, 2.21 7.22, 2.21 7.22 M0.63 15.13 C5.86 10.27, 5.04 9.33, 12.44 1.54 M0.63 15.13 C1.63 13.69, 4.42 9.03, 12.44 1.54 M0.37 21.52 C6.23 18.95, 4.73 11.25, 18.74 0.39 M0.37 21.52 C5.55 18.59, 8.29 12.61, 18.74 0.39 M0.77 27.17 C12.09 15.76, 15.19 4, 24.39 0 M0.77 27.17 C9.93 18.04, 15.44 8.44, 24.39 0 M0.51 33.57 C10.18 23.84, 21.81 9.18, 29.37 0.36 M0.51 33.57 C10.9 23.65, 17.86 10.92, 29.37 0.36 M0.24 39.96 C9.71 26.68, 21.89 16.65, 35.02 -0.04 M0.24 39.96 C9.71 27.44, 18.72 17.3, 35.02 -0.04 M0.64 45.61 C11.62 33.13, 28.43 14.85, 40 0.32 M0.64 45.61 C8.48 37.19, 16.14 27.77, 40 0.32 M0.38 52 C9.71 44.78, 23.84 32.57, 45.65 -0.07 M0.38 52 C14.21 37.51, 26.97 21.17, 45.65 -0.07 M0.77 57.65 C23.84 36.92, 40.09 10.45, 50.63 0.29 M0.77 57.65 C16.86 37.04, 35.26 19.51, 50.63 0.29 M2.48 61.78 C20.47 47.56, 31.36 29.41, 56.28 -0.11 M2.48 61.78 C14.27 51.07, 22.91 38.41, 56.28 -0.11 M4.19 65.91 C26.01 35.38, 52.58 16.1, 61.26 0.25 M4.19 65.91 C24.8 41.75, 42.23 22.86, 61.26 0.25 M7.86 67.78 C21.21 49.48, 31.6 35.49, 66.91 -0.14 M7.86 67.78 C26.51 46.49, 45.84 24.27, 66.91 -0.14 M12.19 68.9 C24.72 48.8, 39.7 33.41, 71.89 0.22 M12.19 68.9 C29.88 51.66, 43.29 31.79, 71.89 0.22 M15.87 70.77 C34.86 49.26, 45.85 36.04, 77.54 -0.17 M15.87 70.77 C29.6 53.81, 47.54 33.65, 77.54 -0.17 M20.85 71.13 C39.39 55.02, 50.39 35.58, 81.87 0.94 M20.85 71.13 C34.28 55.27, 45.77 42.87, 81.87 0.94 M25.84 71.49 C45.13 49.13, 65.62 22.69, 85.54 2.81 M25.84 71.49 C39.6 53.8, 53.95 37.39, 85.54 2.81 M31.48 71.09 C47.33 49.31, 67.77 32.16, 89.87 3.92 M31.48 71.09 C46.28 54.75, 60.78 37.19, 89.87 3.92 M36.47 71.45 C55.57 49.19, 81.72 19.42, 92.89 6.55 M36.47 71.45 C54.94 47.15, 76.9 28.21, 92.89 6.55 M42.11 71.06 C61.14 50.23, 73.84 28.83, 93.94 11.44 M42.11 71.06 C55.21 49.86, 72.99 34.12, 93.94 11.44 M47.1 71.42 C61.36 53.23, 83.73 31.81, 95.65 15.57 M47.1 71.42 C67.35 49.09, 83.26 26.49, 95.65 15.57 M52.74 71.02 C62.08 58.11, 78.97 40.41, 96.04 21.21 M52.74 71.02 C65.16 57.28, 78.82 45.01, 96.04 21.21 M57.73 71.38 C64.74 57.7, 79.15 46.5, 96.44 26.86 M57.73 71.38 C70.7 54.91, 86.96 37.35, 96.44 26.86 M63.37 70.99 C70.65 63.42, 81.74 49.9, 96.18 33.25 M63.37 70.99 C73.64 58.76, 81.71 46.81, 96.18 33.25 M68.36 71.35 C80.94 59.15, 89.14 47.97, 95.92 39.65 M68.36 71.35 C77.05 62.83, 82.52 54.87, 95.92 39.65 M74 70.96 C82.59 66.9, 86.67 52.91, 96.31 45.3 M74 70.96 C80.44 61.58, 89.45 53.48, 96.31 45.3 M78.99 71.32 C88.35 66.93, 94.44 55.72, 96.05 51.69 M78.99 71.32 C84.73 64.56, 90.57 57.11, 96.05 51.69 M86.6 68.66 C90.69 65.64, 92.77 60.88, 96.44 57.34 M86.6 68.66 C88.67 64.16, 92.77 61.53, 96.44 57.34" stroke="#a5d8ff" stroke-width="0.5" fill="none"></path><path d="M17.67 0 C36.57 1.1, 59.69 -1.06, 78.33 0 M78.33 0 C88.11 2.86, 96.81 9.07, 96 17.67 M96 17.67 C98.4 26.11, 96.29 32.11, 96 53 M96 53 C98.49 68.72, 91.33 67.79, 78.33 70.67 M78.33 70.67 C54.83 69.12, 31.63 74.5, 17.67 70.67 M17.67 70.67 C2.51 70.91, 3.56 65.79, 0 53 M0 53 C0.12 47.24, -0.75 36.36, 0 17.67 M0 17.67 C-2.58 8.21, 4.4 3.77, 17.67 0" stroke="#000000" stroke-width="1.5" fill="none" stroke-dasharray="8 9"></path></g><g transform="translate(1164.4918365478516 447.8332824707031) rotate(0 11.508041381835938 17.5)"><text x="0" y="24.528" font-family="Virgil, Segoe UI Emoji" font-size="28px" fill="#000000" text-anchor="start" style="white-space: pre;" direction="ltr" dominant-baseline="alphabetic">...</text></g><g stroke-linecap="round"><g transform="translate(1038.644433608411 302.33331298828125) rotate(0 70.52564508449439 59.99998474121094)"><path d="M-0.15 -1.79 C23.56 18.15, 117.83 101.65, 140.97 121.98" stroke="#1971c2" stroke-width="4.5" fill="none" stroke-dasharray="8 12"></path></g><g transform="translate(1038.644433608411 302.33331298828125) rotate(0 70.52564508449439 59.99998474121094)"><path d="M141.31 122.29 L124.75 119.62 L133.25 108.37 L139.12 121.4" stroke="none" stroke-width="0" fill="#1971c2" fill-rule="evenodd"></path><path d="M140.01 121.93 C138.34 119.62, 133.71 121.15, 126.96 116.55 M127.22 117.38 C128.26 114.59, 131.39 112.59, 136.16 108.56 M134.25 109.2 C137.36 109.92, 137.65 114.25, 140.79 122.31 M140.97 121.98 C140.97 121.98, 140.97 121.98, 140.97 121.98" stroke="#1971c2" stroke-width="4.5" fill="none"></path></g></g><mask></mask><g transform="translate(1275.0065612792969 328.1665954589844) rotate(0 134.73004150390625 22.5)"><text x="0" y="31.536" font-family="Virgil, Segoe UI Emoji" font-size="36px" fill="#1971c2" text-anchor="start" style="white-space: pre;" direction="ltr" dominant-baseline="alphabetic">Pure build deps</text></g><g stroke-linecap="round" transform="translate(1022.333251953125 384.9999084472656) rotate(0 300.99993896484375 78)"><path d="M313.93 0.72 C338.73 -0.18, 366.79 2.82, 391.57 4.55 C416.35 6.29, 440.27 7.53, 462.61 11.1 C484.96 14.68, 507.7 21.05, 525.63 26.03 C543.57 31, 558.37 35.1, 570.22 40.94 C582.07 46.78, 591.45 54.08, 596.73 61.05 C602.01 68.02, 603.61 76.05, 601.88 82.78 C600.14 89.51, 594.62 95.09, 586.34 101.43 C578.06 107.77, 566.2 114.91, 552.19 120.83 C538.19 126.76, 521.41 132.51, 502.32 137.01 C483.23 141.5, 460.64 145.22, 437.66 147.81 C414.68 150.4, 389.5 150.91, 364.42 152.55 C339.35 154.19, 313.26 157.71, 287.22 157.65 C261.18 157.59, 232.71 154.22, 208.17 152.2 C183.63 150.17, 161.84 149.09, 139.97 145.52 C118.1 141.95, 94.91 135.95, 76.96 130.76 C59 125.57, 44.26 120.23, 32.25 114.38 C20.23 108.52, 10.07 102.01, 4.86 95.64 C-0.35 89.26, -0.42 82.86, 0.97 76.11 C2.36 69.37, 5.7 61.96, 13.22 55.17 C20.74 48.38, 31.73 40.91, 46.12 35.4 C60.51 29.9, 80.18 26.55, 99.55 22.13 C118.93 17.71, 139.62 12.42, 162.37 8.86 C185.12 5.31, 204.34 2.05, 236.06 0.79 C267.78 -0.47, 327.64 0.87, 352.67 1.32 C377.71 1.78, 386.99 2.22, 386.28 3.53" stroke="#1971c2" stroke-width="4.5" fill="none" stroke-dasharray="8 12"></path></g></svg>